<?xml version="1.0" encoding="UTF-8" standalone="no"?>
<!DOCTYPE svg PUBLIC "-//W3C//DTD SVG 1.1//EN" "http://www.w3.org/Graphics/SVG/1.1/DTD/svg11.dtd">
<svg width="100%" height="100%" viewBox="0 0 1355 1357" version="1.1" xmlns="http://www.w3.org/2000/svg" xmlns:xlink="http://www.w3.org/1999/xlink" xml:space="preserve" xmlns:serif="http://www.serif.com/" style="fill-rule:evenodd;clip-rule:evenodd;stroke-linejoin:round;stroke-miterlimit:2;">
    <g>
        <path d="M356.241,1095.8C274.822,1037.32 211.069,955.779 174.501,860.748L272.058,687.337L566.274,687.337L446.906,886.82C500.949,940.751 575.341,974.256 657.783,974.256C823.111,974.256 957.149,840.227 957.149,674.892C957.149,509.556 823.111,375.527 657.783,375.527C535.267,375.527 430.098,449.209 383.753,554.6L154.494,553.394C183.643,432.273 255.329,327.722 352.873,256.473L339.37,153.042L463.408,82.072L558.491,166.665C590.624,160.421 623.82,157.15 657.783,157.15C686.173,157.15 714.03,159.435 741.179,163.831L804.728,82.679L942.291,121.402L948.502,246.407C999.015,280.743 1043.14,323.776 1078.72,373.354L1158.01,353.698L1242.54,468.925L1166.33,577.058C1172.39,608.75 1175.56,641.467 1175.56,674.926C1175.56,704.5 1173.08,733.495 1168.32,761.715L1247.19,827.407L1204.32,963.741L1086.04,966.031C1050.29,1018.52 1005.14,1064.09 953.021,1100.33L959.854,1211.36L831.258,1273.7L744.737,1185.42C716.465,1190.2 687.415,1192.69 657.783,1192.69C624.163,1192.69 591.294,1189.49 559.465,1183.37L489.569,1261.96L354.693,1214.71L356.241,1095.8Z" style="fill:rgb(35,31,32);"/>
    </g>
</svg>
