<svg xmlns="http://www.w3.org/2000/svg" viewBox="0 0 100 100"><path d="M83.00 50.00 L93.80 54.14 L92.05 62.94 L80.49 62.63 L73.33 73.33 L78.05 83.90 L70.59 88.89 L62.63 80.49 L50.00 83.00 L45.86 93.80 L37.06 92.05 L37.37 80.49 L26.67 73.33 L16.10 78.05 L11.11 70.59 L19.51 62.63 L17.00 50.00 L6.20 45.86 L7.95 37.06 L19.51 37.37 L26.67 26.67 L21.95 16.10 L29.41 11.11 L37.37 19.51 L50.00 17.00 L54.14 6.20 L62.94 7.95 L62.63 19.51 L73.33 26.67 L83.90 21.95 L88.89 29.41 L80.49 37.37 Z" fill="#000000"/><circle cx="50" cy="50" r="15.0" fill="#000000"/></svg>
